<svg xmlns="http://www.w3.org/2000/svg" width="1333.333" height="1333.333" viewBox="0 0 1000 1000" preserveAspectRatio="xMidYMid meet" xmlns:v="https://vecta.io/nano"><path d="M471.7 69.1c-120.2 7.7-233.9 67.4-309.6 162.6C77.5 338.2 48 477.4 82.1 609c23.2 89.6 75.6 170.5 147.9 228.5 109.3 87.5 250.9 116.6 386.5 79.4 86.4-23.6 165.6-76.3 222.5-147.8C923.4 663 953 523.6 918.9 392c-23.2-89.6-75.6-170.6-147.9-228.5-85.2-68.2-190.4-101.3-299.3-94.4zm70.3 68.3c17.1 2.1 29.9 4.4 45.2 8.2 13.2 3.2 35 9.9 42.3 13l3.5 1.4-9.2 7.7c-46.6 38.7-85.1 87.1-111.7 140-17.5 35.1-31.4 76.7-38.5 115.3-9.6 52.8-9.1 110.7 1.5 163.5 19.2 96 71.9 184.1 147.7 247.1l9.3 7.7-3 1.3c-6.2 2.6-28 9.4-39.6 12.3-16.4 4.1-30.3 6.7-47.5 8.8-20.1 2.4-62.8 2.4-83 0-26.3-3.2-55.5-10-79.5-18.4l-11-3.9V500.5 159.6l12.5-4.4c24.8-8.6 57-15.7 82.5-18.2l15-1.4c8.3-.8 52.5.4 63.5 1.8zM301.8 653.5l-.3 153.6-11.4-8.1c-18-12.8-31.4-24.2-48.2-41-58.6-58.6-94.3-132.3-104.6-216-2.4-20.2-2.4-62.8 0-83 12.9-104.8 67.1-196 152.8-257l11.4-8.1.3 152.9v306.7zM711 202c35.5 25.2 69.4 59.9 93.4 95.9 32.1 48.2 52 102.2 59.3 161.1 1.3 10.6 1.7 21.7 1.7 41.5s-.4 30.9-1.7 41.5c-8.6 69.9-34.7 132.3-78.4 187.1-19.7 24.7-51.7 54.5-77.6 72.2l-8.5 5.9-10.3-7.3c-23.6-16.7-48-38.8-66.2-59.8-95.7-110.9-116.4-266.6-52.8-397.6 13.2-27.1 26.3-47.9 45.5-71.9 10.8-13.6 39.4-42 54.1-53.8 12.2-9.8 29.2-21.8 30.8-21.8.4 0 5.3 3.1 10.7 7z"/></svg>